Coordinates
version=1
nRows=11
nColumns=36
inDegrees=yes

Units are S.I. units (second, meters, Newtons, ...)
If the header above contains a line with 'inDegrees', this indicates whether rotational values are in degrees (yes) or radians (no).

endheader
time	pelvis_tilt	pelvis_list	pelvis_rotation	pelvis_tx	pelvis_ty	pelvis_tz	hip_flexion_r	hip_adduction_r	hip_rotation_r	knee_angle_r	knee_angle_r_beta	ankle_angle_r	subtalar_angle_r	mtp_angle_r	hip_flexion_l	hip_adduction_l	hip_rotation_l	knee_angle_l	knee_angle_l_beta	ankle_angle_l	subtalar_angle_l	mtp_angle_l	lumbar_extension	lumbar_bending	lumbar_rotation	arm_flex_r	arm_add_r	arm_rot_r	elbow_flex_r	pro_sup_r	arm_flex_l	arm_add_l	arm_rot_l	elbow_flex_l	pro_sup_l
      5.65000000	     -1.89645451	      9.54907410	      8.40522942	      0.68904225	      0.89769149	      0.21743580	     58.58979353	    -12.20913767	     11.54184340	     25.99387383	      0.45367868	     -1.71440019	      6.37377804	     -7.49999987	     27.38795926	     15.69823066	     -7.00799586	     49.07171054	      0.85646292	     20.72476055	    -12.57935871	     -7.49999987	    -14.51712572	    -19.51817487	     -1.97726317	     46.33064674	      8.67177094	     52.28145042	    126.12283243	     96.35866147	     48.75335739	     -6.99078333	     64.07506953	    131.02977957	     86.70738875
      5.66666670	     -1.44167542	      9.22893395	      8.24192683	      0.68426022	      0.90460023	      0.21925132	     57.40279640	    -11.75128015	     10.95656794	     25.19940047	      0.43981251	     -1.50974199	      6.40460290	     -7.49999987	     25.57313641	     15.16870218	     -6.90816390	     46.33600439	      0.80871584	     19.39551861	    -12.83121650	     -7.49999987	    -15.15461185	    -19.11685166	     -1.70769553	     47.29543091	      8.33784163	     52.36231298	    126.18280806	     96.44775858	     49.82307094	     -5.88857410	     64.68865661	    130.58657393	     86.94417967
      5.68333330	     -1.14624947	      8.83624294	      8.08474961	      0.68476497	      0.91019320	      0.21933347	     56.29385149	    -11.25975828	     10.25233528	     24.41173899	      0.42606522	     -1.14034645	      6.63681462	     -7.49999987	     23.69783343	     14.60034211	     -6.78695647	     43.36816056	      0.75691719	     18.08046573	    -12.99323578	     -7.49999987	    -15.45214742	    -18.69730481	     -1.10873831	     47.84298076	      7.95948246	     51.60336583	    126.28087755	     95.84533768	     50.22022515	     -5.16754732	     65.70895024	    130.93879248	     86.41977627
      5.70000000	     -0.84510323	      8.25006639	      7.83777371	      0.68619675	      0.91802959	      0.21936378	     55.04416401	    -10.57886540	      9.41109218	     23.51878954	      0.41048031	     -0.67515751	      7.11740899	     -7.49999987	     21.65121857	     13.80849270	     -6.62036042	     40.15165567	      0.70077859	     16.66184831	    -12.98528382	     -7.49999987	    -15.43692022	    -17.98590120	     -0.55914198	     47.86954320	      7.70357757	     51.21244511	    126.50729082	     95.00825993	     50.37446144	     -4.70953823	     66.26319856	    130.23735245	     85.80182106
      5.71666670	     -0.65021186	      7.63816721	      7.68842245	      0.68683059	      0.92338441	      0.21933621	     54.27786167	     -9.94657131	      8.62935140	     23.11255850	      0.40339024	     -0.41215933	      7.38301371	     -7.49999987	     20.08575269	     12.92857816	     -6.77351942	     37.50803242	      0.65463866	     15.26774423	    -12.91946295	     -7.49999987	    -15.19903210	    -17.32392801	     -0.14039009	     47.75059077	      7.50133673	     50.52563941	    126.41667058	     94.43109535	     50.72676209	     -4.34395170	     66.90300792	    129.80029323	     85.40167089
      5.73333330	     -0.58299506	      7.04613717	      7.69112714	      0.68326535	      0.93598545	      0.22164532	     53.66501079	     -9.43423291	      7.71892714	     22.60083861	      0.39445905	     -0.24588821	      7.71680298	     -7.49999987	     18.78900703	     12.14191937	     -6.85033727	     35.01627047	      0.61114921	     13.93019188	    -12.70450921	     -7.49999987	    -15.20858564	    -16.71834575	      0.22440268	     47.59547703	      6.95835490	     50.26197513	    126.42255659	     95.80551192	     50.87679328	     -4.14427536	     67.21237703	    129.53735048	     88.73532952
      5.75000000	     -0.68943473	      6.32455660	      7.54532759	      0.68400528	      0.93976675	      0.22121495	     53.26158199	     -8.74850810	      6.86853007	     22.08106141	      0.38538722	      0.24695053	      7.94308666	     -7.49999987	     17.56046352	     11.27470739	     -6.97927160	     32.40832929	      0.56563205	     12.39829420	    -12.69882500	     -7.49999987	    -14.93963181	    -16.06059404	      0.28689034	     47.33117554	      6.64954627	     50.62387550	    126.36119778	     95.16821330	     50.76926374	     -4.29703824	     68.76217466	    130.28982682	     87.96681839
      5.76666670	     -0.84867203	      5.46189187	      7.29906562	      0.69108673	      0.94560586	      0.22415701	     52.69027193	     -7.87596342	      5.97943970	     21.41096004	      0.37369175	      0.84685294	      8.00121636	     -7.49999987	     16.16382727	     10.19447279	     -7.27715333	     29.60582806	      0.51671918	     11.15959529	    -12.30425099	     -7.49999987	    -14.32263271	    -15.30950106	      0.55706244	     46.25772015	      6.62224386	     51.26069770	    126.03726947	     95.28448011	     49.99434120	     -4.46127694	     69.41088377	    130.21865180	     88.05096961
      5.78333330	     -1.07806646	      4.52286411	      7.19664419	      0.69147217	      0.94452606	      0.22368816	     52.45976136	     -7.03426584	      5.28395937	     21.20129952	      0.37003248	      1.61189237	      7.87107425	     -7.49999987	     15.12459298	      9.10742915	     -7.37225690	     27.25027016	      0.47560694	     10.12337235	    -11.85078885	     -7.49999987	    -13.51621369	    -14.39309853	      0.92018623	     45.80993426	      6.61889277	     51.35958024	    126.25854956	     95.38657006	     49.19730131	     -4.35451196	     69.41917227	    130.69596803	     88.09642550
      5.80000000	     -1.04256569	      3.42993226	      6.89445798	      0.69739737	      0.94797375	      0.22590075	     52.00189584	     -5.89889124	      4.64642105	     21.10824035	      0.36840829	      2.55959626	      7.64044370	     -7.49999987	     13.79340252	      7.79070194	     -7.55835428	     24.92714932	      0.43506083	      9.20281138	    -11.53439303	     -7.49999987	    -13.01885245	    -13.22348179	      1.18503023	     44.98456179	      6.66983855	     51.18923177	    125.97058714	     95.34828861	     48.11564968	     -4.30289953	     68.49972642	    131.22324514	     87.93917349
      5.81666670	     -1.45705938	      2.40886615	      6.68692339	      0.69710396	      0.94486829	      0.22549518	     52.57030424	     -4.91336840	      4.27707578	     21.75793628	      0.37974763	      3.42405531	      6.97493613	     -7.49999987	     13.47835022	      6.59000972	     -7.82259464	     23.45129177	      0.40930226	      8.55869938	    -11.17479106	     -7.49999987	    -11.89514326	    -12.21101710	      1.38541274	     44.21278789	      6.68427398	     50.59309891	    126.31705450	     95.68162952	     47.21387161	     -3.96898634	     67.47661789	    131.22877627	     88.28340441
